<svg width="37" height="35" viewBox="0 0 37 35" fill="none" xmlns="http://www.w3.org/2000/svg">
<path opacity="0.25" d="M9.23044 16.2514C8.18053 16.2514 7.1542 15.9559 6.28123 15.4023C5.40826 14.8487 4.72786 14.0618 4.32608 13.1412C3.9243 12.2205 3.81917 11.2075 4.024 10.2302C4.22883 9.25284 4.73441 8.3551 5.47681 7.65049C6.21921 6.94587 7.16508 6.46602 8.19482 6.27162C9.22456 6.07721 10.2919 6.17699 11.2619 6.55832C12.2319 6.93966 13.061 7.58543 13.6443 8.41397C14.2276 9.24251 14.5389 10.2166 14.5389 11.2131C14.5373 12.5489 13.9775 13.8295 12.9823 14.774C11.9871 15.7185 10.6378 16.2499 9.23044 16.2514Z" fill="#00B087"/>
<path opacity="0.5" d="M13.2345 14.4837C12.7431 15.0373 12.1301 15.4824 11.4384 15.7877C10.7468 16.093 9.99322 16.2512 9.23043 16.2512C8.46765 16.2512 7.71408 16.093 7.02244 15.7877C6.3308 15.4824 5.71781 15.0373 5.22635 14.4837C4.13446 15.1264 3.23294 16.0223 2.60672 17.0871C1.9805 18.1519 1.6502 19.3505 1.64694 20.5699C1.64694 20.9517 1.80674 21.3178 2.09117 21.5878C2.37561 21.8578 2.76139 22.0094 3.16364 22.0094H15.2972C15.6995 22.0094 16.0853 21.8578 16.3697 21.5878C16.6541 21.3178 16.8139 20.9517 16.8139 20.5699C16.8107 19.3505 16.4804 18.1519 15.8541 17.0871C15.2279 16.0223 14.3264 15.1264 13.2345 14.4837ZM27.4308 16.2514C26.3809 16.2514 25.3546 15.9559 24.4816 15.4023C23.6086 14.8487 22.9282 14.0618 22.5265 13.1412C22.1247 12.2205 22.0195 11.2075 22.2244 10.2302C22.4292 9.25284 22.9348 8.3551 23.6772 7.65049C24.4196 6.94587 25.3655 6.46602 26.3952 6.27162C27.4249 6.07721 28.4923 6.17699 29.4623 6.55832C30.4323 6.93966 31.2613 7.58543 31.8446 8.41397C32.4279 9.24251 32.7393 10.2166 32.7393 11.2131C32.7377 12.5489 32.1779 13.8295 31.1827 14.774C30.1875 15.7185 28.8382 16.2499 27.4308 16.2514Z" fill="#00B087"/>
<path opacity="0.7" d="M31.4349 14.4836C30.9434 15.0373 30.3305 15.4824 29.6388 15.7877C28.9472 16.093 28.1936 16.2512 27.4308 16.2512C26.668 16.2512 25.9145 16.093 25.2228 15.7877C24.5312 15.4824 23.9182 15.0373 23.4267 14.4836C22.3349 15.1263 21.4333 16.0223 20.8071 17.0871C20.1809 18.1519 19.8506 19.3505 19.8473 20.5699C19.8473 20.9517 20.0071 21.3178 20.2916 21.5878C20.576 21.8577 20.9618 22.0094 21.364 22.0094H33.4976C33.8999 22.0094 34.2857 21.8577 34.5701 21.5878C34.8545 21.3178 35.0143 20.9517 35.0143 20.5699C35.0111 19.3505 34.6808 18.1519 34.0545 17.0871C33.4283 16.0223 32.5268 15.1263 31.4349 14.4836Z" fill="#00B087"/>
<path d="M32.2949 26.7497L29.2615 23.8706C28.9754 23.6084 28.5923 23.4633 28.1946 23.4666C27.797 23.4699 27.4165 23.6213 27.1353 23.8882C26.8541 24.1551 26.6946 24.5161 26.6912 24.8936C26.6877 25.271 26.8406 25.6346 27.1169 25.9061L27.5613 26.3279H23.6391C23.2368 26.3279 22.851 26.4795 22.5666 26.7495C22.2822 27.0195 22.1224 27.3856 22.1224 27.7674C22.1224 28.1492 22.2822 28.5153 22.5666 28.7853C22.851 29.0552 23.2368 29.2069 23.6391 29.2069H27.5613L27.1169 29.6287C26.972 29.7615 26.8565 29.9203 26.777 30.0959C26.6975 30.2716 26.6556 30.4605 26.6539 30.6516C26.6521 30.8427 26.6905 31.0323 26.7668 31.2092C26.843 31.3861 26.9557 31.5468 27.0981 31.682C27.2405 31.8171 27.4098 31.924 27.5962 31.9964C27.7826 32.0688 27.9823 32.1052 28.1837 32.1036C28.3851 32.1019 28.5841 32.0622 28.7692 31.9867C28.9542 31.9113 29.1216 31.8016 29.2615 31.6641L32.2949 28.7851C32.5792 28.5152 32.7389 28.1491 32.7389 27.7674C32.7389 27.3857 32.5792 27.0196 32.2949 26.7497ZM13.0222 26.3279H9.1L9.54439 25.9061C9.82067 25.6346 9.97355 25.271 9.97009 24.8936C9.96664 24.5161 9.80713 24.1551 9.52592 23.8882C9.24471 23.6213 8.8643 23.4699 8.46663 23.4666C8.06896 23.4633 7.68584 23.6084 7.39978 23.8706L4.36639 26.7497C4.08205 27.0196 3.92232 27.3857 3.92232 27.7674C3.92232 28.1491 4.08205 28.5152 4.36639 28.7851L7.39978 31.6641C7.68584 31.9264 8.06896 32.0715 8.46663 32.0682C8.8643 32.0649 9.24471 31.9135 9.52592 31.6466C9.80713 31.3797 9.96664 31.0187 9.97009 30.6412C9.97355 30.2638 9.82067 29.9002 9.54439 29.6287L9.1 29.2069H13.0222C13.4244 29.2069 13.8102 29.0552 14.0947 28.7853C14.3791 28.5153 14.5389 28.1492 14.5389 27.7674C14.5389 27.3856 14.3791 27.0195 14.0947 26.7495C13.8102 26.4795 13.4244 26.3279 13.0222 26.3279Z" fill="#00B087"/>
</svg>
