<svg width="42" height="38" viewBox="0 0 42 38" fill="none" xmlns="http://www.w3.org/2000/svg">
<ellipse cx="20.7718" cy="18.6547" rx="20.7718" ry="18.6547" fill="#B3C6ED"/>
<path d="M17.9156 7.46191C16.3383 7.46191 15.0595 8.61033 15.0595 10.0269V11.1639C15.0595 11.9526 14.4202 12.592 13.6315 12.592C11.2654 12.592 9.34729 14.3146 9.34729 16.4395V24.1346C9.34729 26.2595 11.2654 27.9821 13.6315 27.9821H27.912C30.2781 27.9821 32.1962 26.2595 32.1962 24.1346V16.4395C32.1962 14.3146 30.2781 12.592 27.912 12.592C27.1234 12.592 26.484 11.9526 26.484 11.1639V10.0269C26.484 8.61033 25.2052 7.46191 23.6279 7.46191H17.9156ZM23.6279 11.3094C23.6279 12.0178 23.0537 12.592 22.3454 12.592H19.1982C18.4898 12.592 17.9156 12.0178 17.9156 11.3094C17.9156 10.6011 18.4898 10.0269 19.1982 10.0269H22.3454C23.0537 10.0269 23.6279 10.6011 23.6279 11.3094Z" fill="#CFD8DC"/>
<path d="M17.9156 7.46191C16.3383 7.46191 15.0595 8.61033 15.0595 10.0269V11.1639C15.0595 11.9526 14.4202 12.592 13.6315 12.592C11.2654 12.592 9.34729 14.3146 9.34729 16.4395V24.1346C9.34729 26.2595 11.2654 27.9821 13.6315 27.9821H27.912C30.2781 27.9821 32.1962 26.2595 32.1962 24.1346V16.4395C32.1962 14.3146 30.2781 12.592 27.912 12.592C27.1234 12.592 26.484 11.9526 26.484 11.1639V10.0269C26.484 8.61033 25.2052 7.46191 23.6279 7.46191H17.9156ZM23.6279 11.3094C23.6279 12.0178 23.0537 12.592 22.3454 12.592H19.1982C18.4898 12.592 17.9156 12.0178 17.9156 11.3094C17.9156 10.6011 18.4898 10.0269 19.1982 10.0269H22.3454C23.0537 10.0269 23.6279 10.6011 23.6279 11.3094Z" fill="white"/>
</svg>
