<svg width="67" height="57" viewBox="0 0 67 57" fill="none" xmlns="http://www.w3.org/2000/svg">
<path opacity="0.21" fill-rule="evenodd" clip-rule="evenodd" d="M0.6875 28.5105V33.9999C0.6875 46.7025 10.985 56.9999 23.6875 56.9999H33.7791H43.8707C56.5733 56.9999 66.8707 46.7025 66.8707 34V28.5105V23.021C66.8707 10.3184 56.5733 0.0209961 43.8707 0.0209961H33.7791H23.6875C10.985 0.0209961 0.6875 10.3184 0.6875 23.021V28.5105Z" fill="#FEC53D"/>
<path opacity="0.25" d="M25.2304 27.2514C24.1805 27.2514 23.1542 26.9559 22.2812 26.4023C21.4083 25.8487 20.7279 25.0618 20.3261 24.1412C19.9243 23.2205 19.8192 22.2075 20.024 21.2302C20.2288 20.2528 20.7344 19.3551 21.4768 18.6505C22.2192 17.9459 23.1651 17.466 24.1948 17.2716C25.2246 17.0772 26.2919 17.177 27.2619 17.5583C28.2319 17.9397 29.061 18.5854 29.6443 19.414C30.2276 20.2425 30.5389 21.2166 30.5389 22.2131C30.5373 23.5489 29.9775 24.8295 28.9823 25.774C27.9871 26.7185 26.6378 27.2499 25.2304 27.2514Z" fill="#FEDB89"/>
<path opacity="0.5" d="M29.2345 25.4837C28.7431 26.0373 28.1301 26.4824 27.4384 26.7877C26.7468 27.093 25.9932 27.2512 25.2304 27.2512C24.4676 27.2512 23.7141 27.093 23.0224 26.7877C22.3308 26.4824 21.7178 26.0373 21.2264 25.4837C20.1345 26.1264 19.2329 27.0223 18.6067 28.0871C17.9805 29.1519 17.6502 30.3505 17.6469 31.5699C17.6469 31.9517 17.8067 32.3178 18.0912 32.5878C18.3756 32.8578 18.7614 33.0094 19.1636 33.0094H31.2972C31.6995 33.0094 32.0853 32.8578 32.3697 32.5878C32.6541 32.3178 32.8139 31.9517 32.8139 31.5699C32.8107 30.3505 32.4804 29.1519 31.8541 28.0871C31.2279 27.0223 30.3264 26.1264 29.2345 25.4837ZM43.4308 27.2514C42.3809 27.2514 41.3546 26.9559 40.4816 26.4023C39.6086 25.8487 38.9282 25.0618 38.5265 24.1412C38.1247 23.2205 38.0195 22.2075 38.2244 21.2302C38.4292 20.2528 38.9348 19.3551 39.6772 18.6505C40.4196 17.9459 41.3655 17.466 42.3952 17.2716C43.4249 17.0772 44.4923 17.177 45.4623 17.5583C46.4323 17.9397 47.2613 18.5854 47.8446 19.414C48.4279 20.2425 48.7393 21.2166 48.7393 22.2131C48.7377 23.5489 48.1779 24.8295 47.1827 25.774C46.1875 26.7185 44.8382 27.2499 43.4308 27.2514Z" fill="#FEC53D"/>
<path opacity="0.7" d="M47.4349 25.4836C46.9434 26.0373 46.3305 26.4824 45.6388 26.7877C44.9472 27.093 44.1936 27.2512 43.4308 27.2512C42.668 27.2512 41.9145 27.093 41.2228 26.7877C40.5312 26.4824 39.9182 26.0373 39.4267 25.4836C38.3349 26.1263 37.4333 27.0223 36.8071 28.0871C36.1809 29.1519 35.8506 30.3505 35.8473 31.5699C35.8473 31.9517 36.0071 32.3178 36.2916 32.5878C36.576 32.8577 36.9618 33.0094 37.364 33.0094H49.4976C49.8999 33.0094 50.2857 32.8577 50.5701 32.5878C50.8545 32.3178 51.0143 31.9517 51.0143 31.5699C51.0111 30.3505 50.6808 29.1519 50.0545 28.0871C49.4283 27.0223 48.5268 26.1263 47.4349 25.4836Z" fill="#FEC53D"/>
<path d="M48.2949 37.7497L45.2615 34.8706C44.9754 34.6084 44.5923 34.4633 44.1946 34.4666C43.797 34.4699 43.4165 34.6213 43.1353 34.8882C42.8541 35.1551 42.6946 35.5161 42.6912 35.8936C42.6877 36.271 42.8406 36.6346 43.1169 36.9061L43.5613 37.3279H39.6391C39.2368 37.3279 38.851 37.4795 38.5666 37.7495C38.2822 38.0195 38.1224 38.3856 38.1224 38.7674C38.1224 39.1492 38.2822 39.5153 38.5666 39.7853C38.851 40.0552 39.2368 40.2069 39.6391 40.2069H43.5613L43.1169 40.6287C42.972 40.7615 42.8565 40.9203 42.777 41.0959C42.6975 41.2716 42.6556 41.4605 42.6539 41.6516C42.6521 41.8427 42.6905 42.0323 42.7668 42.2092C42.843 42.3861 42.9557 42.5468 43.0981 42.682C43.2405 42.8171 43.4098 42.924 43.5962 42.9964C43.7826 43.0688 43.9823 43.1052 44.1837 43.1036C44.3851 43.1019 44.5841 43.0622 44.7692 42.9867C44.9542 42.9113 45.1216 42.8016 45.2615 42.6641L48.2949 39.7851C48.5792 39.5152 48.7389 39.1491 48.7389 38.7674C48.7389 38.3857 48.5792 38.0196 48.2949 37.7497ZM29.0222 37.3279H25.1L25.5444 36.9061C25.8207 36.6346 25.9735 36.271 25.9701 35.8936C25.9666 35.5161 25.8071 35.1551 25.5259 34.8882C25.2447 34.6213 24.8643 34.4699 24.4666 34.4666C24.069 34.4633 23.6858 34.6084 23.3998 34.8706L20.3664 37.7497C20.082 38.0196 19.9223 38.3857 19.9223 38.7674C19.9223 39.1491 20.082 39.5152 20.3664 39.7851L23.3998 42.6641C23.6858 42.9264 24.069 43.0715 24.4666 43.0682C24.8643 43.0649 25.2447 42.9135 25.5259 42.6466C25.8071 42.3797 25.9666 42.0187 25.9701 41.6412C25.9735 41.2638 25.8207 40.9002 25.5444 40.6287L25.1 40.2069H29.0222C29.4244 40.2069 29.8102 40.0552 30.0947 39.7853C30.3791 39.5153 30.5389 39.1492 30.5389 38.7674C30.5389 38.3856 30.3791 38.0195 30.0947 37.7495C29.8102 37.4795 29.4244 37.3279 29.0222 37.3279Z" fill="#FEC53D"/>
</svg>
